<svg xmlns="http://www.w3.org/2000/svg" viewBox="0 0 64 64" width="64" height="64">
  <defs>
    <linearGradient id="a" x1="0" y1="0" x2="64" y2="64" gradientUnits="userSpaceOnUse">
      <stop offset="0" stop-color="#3ef7c8"/>
      <stop offset="0.34" stop-color="#38bdf8"/>
      <stop offset="0.68" stop-color="#8b5cf6"/>
      <stop offset="1" stop-color="#e879f9"/>
    </linearGradient>
  </defs>
  <rect width="64" height="64" rx="16" fill="#05060a"/>
  <rect x="1.5" y="1.5" width="61" height="61" rx="14.5" fill="none" stroke="url(#a)" stroke-width="2.5"/>
  <path d="M42 22.5c-2.4-2.8-6-4.3-9.9-4.3-6 0-9.8 3.1-9.8 7.6 0 4.1 2.9 6.1 8.6 7.4 5.2 1.2 6.6 2.1 6.6 4.2 0 2.2-2 3.6-5.2 3.6-3.4 0-6.1-1.5-8.2-4.1l-2.4 4.6c2.6 3 6.4 4.6 10.7 4.6 6.4 0 10.5-3.3 10.5-8.1 0-4.4-3-6.4-8.9-7.7-5-1.1-6.3-2-6.3-3.9 0-1.9 1.7-3.1 4.6-3.1 3 0 5.6 1.3 7.4 3.6z" fill="url(#a)"/>
</svg>
