<svg xmlns="http://www.w3.org/2000/svg" viewBox="0 0 64 64" width="64" height="64">
  <rect width="64" height="64" rx="14" fill="#100f0d"/>
  <path d="M42 22.5c-2.4-2.8-6-4.3-9.9-4.3-6 0-9.8 3.1-9.8 7.6 0 4.1 2.9 6.1 8.6 7.4 5.2 1.2 6.6 2.1 6.6 4.2 0 2.2-2 3.6-5.2 3.6-3.4 0-6.1-1.5-8.2-4.1l-2.4 4.6c2.6 3 6.4 4.6 10.7 4.6 6.4 0 10.5-3.3 10.5-8.1 0-4.4-3-6.4-8.9-7.7-5-1.1-6.3-2-6.3-3.9 0-1.9 1.7-3.1 4.6-3.1 3 0 5.6 1.3 7.4 3.6z" fill="#ffffff"/>
  <circle cx="45" cy="40" r="3.4" fill="#ff4a1c"/>
</svg>
